<?xml version="1.0" encoding="UTF-8"?>
<!DOCTYPE svg PUBLIC "-//W3C//DTD SVG 1.1//EN" "http://www.w3.org/Graphics/SVG/1.1/DTD/svg11.dtd">
<svg xmlns="http://www.w3.org/2000/svg" version="1.1" width="539px" height="463px" style="shape-rendering:geometricPrecision; text-rendering:geometricPrecision; image-rendering:optimizeQuality; fill-rule:evenodd; clip-rule:evenodd" xmlns:xlink="http://www.w3.org/1999/xlink">
<g><path style="opacity:1" fill="#251f20" d="M -0.5,105.5 C 25.0562,109.981 50.7228,113.815 76.5,117C 104.167,120.303 131.834,120.303 159.5,117C 192.967,111.553 226.634,109.219 260.5,110C 274.741,111.394 288.741,114.06 302.5,118C 325.037,125.068 347.704,131.734 370.5,138C 401.743,145.593 432.743,144.593 463.5,135C 489.106,126.633 514.106,116.8 538.5,105.5C 538.5,133.5 538.5,161.5 538.5,189.5C 358.833,189.5 179.167,189.5 -0.5,189.5C -0.5,161.5 -0.5,133.5 -0.5,105.5 Z"/></g>
<g><path style="opacity:1" fill="#e22118" d="M -0.5,189.5 C 179.167,189.5 358.833,189.5 538.5,189.5C 538.5,217.167 538.5,244.833 538.5,272.5C 358.833,272.5 179.167,272.5 -0.5,272.5C -0.5,244.833 -0.5,217.167 -0.5,189.5 Z"/></g>
<g><path style="opacity:1" fill="#fed205" d="M -0.5,272.5 C 179.167,272.5 358.833,272.5 538.5,272.5C 538.5,288.833 538.5,305.167 538.5,321.5C 504.041,328.758 469.374,334.925 434.5,340C 392.93,345.468 351.264,346.468 309.5,343C 269.842,338.584 230.175,334.251 190.5,330C 126.722,326.193 63.0553,327.36 -0.5,333.5C -0.5,313.167 -0.5,292.833 -0.5,272.5 Z"/></g>
</svg>
