<?xml version="1.0" encoding="UTF-8"?>
<!DOCTYPE svg PUBLIC "-//W3C//DTD SVG 1.1//EN" "http://www.w3.org/Graphics/SVG/1.1/DTD/svg11.dtd">
<svg xmlns="http://www.w3.org/2000/svg" version="1.1" width="1973px" height="1696px" style="shape-rendering:geometricPrecision; text-rendering:geometricPrecision; image-rendering:optimizeQuality; fill-rule:evenodd; clip-rule:evenodd" xmlns:xlink="http://www.w3.org/1999/xlink">
<g><path style="opacity:1" fill="#fefefe" d="M -0.5,-0.5 C 657.167,-0.5 1314.83,-0.5 1972.5,-0.5C 1972.5,128.833 1972.5,258.167 1972.5,387.5C 1924.42,408.928 1876.08,430.095 1827.5,451C 1753.68,482.204 1677.35,504.871 1598.5,519C 1532.06,529.595 1465.72,528.928 1399.5,517C 1359.75,508.897 1320.42,499.23 1281.5,488C 1219,468.388 1156.33,449.388 1093.5,431C 1049.84,419.143 1005.51,410.81 960.5,406C 919.879,402.368 879.212,401.702 838.5,404C 809.821,406.112 781.154,408.445 752.5,411C 683.284,419.97 613.951,427.97 544.5,435C 467.132,441.315 389.799,440.982 312.5,434C 260.997,428.979 209.663,422.645 158.5,415C 105.437,405.981 52.4367,396.815 -0.5,387.5C -0.5,258.167 -0.5,128.833 -0.5,-0.5 Z"/></g>
<g><path style="opacity:1" fill="#231f20" d="M -0.5,387.5 C 52.4367,396.815 105.437,405.981 158.5,415C 209.663,422.645 260.997,428.979 312.5,434C 389.799,440.982 467.132,441.315 544.5,435C 613.951,427.97 683.284,419.97 752.5,411C 781.154,408.445 809.821,406.112 838.5,404C 879.212,401.702 919.879,402.368 960.5,406C 1005.51,410.81 1049.84,419.143 1093.5,431C 1156.33,449.388 1219,468.388 1281.5,488C 1320.42,499.23 1359.75,508.897 1399.5,517C 1465.72,528.928 1532.06,529.595 1598.5,519C 1677.35,504.871 1753.68,482.204 1827.5,451C 1876.08,430.095 1924.42,408.928 1972.5,387.5C 1972.5,489.5 1972.5,591.5 1972.5,693.5C 1314.83,693.5 657.167,693.5 -0.5,693.5C -0.5,591.5 -0.5,489.5 -0.5,387.5 Z"/></g>
<g><path style="opacity:1" fill="#e22119" d="M -0.5,693.5 C 657.167,693.5 1314.83,693.5 1972.5,693.5C 1972.5,796.167 1972.5,898.833 1972.5,1001.5C 1314.83,1001.5 657.167,1001.5 -0.5,1001.5C -0.5,898.833 -0.5,796.167 -0.5,693.5 Z"/></g>
<g><path style="opacity:1" fill="#ffd300" d="M -0.5,1001.5 C 657.167,1001.5 1314.83,1001.5 1972.5,1001.5C 1972.5,1059.83 1972.5,1118.17 1972.5,1176.5C 1900.92,1191.12 1829.25,1205.28 1757.5,1219C 1661.11,1236.53 1564.11,1249.53 1466.5,1258C 1363.83,1266.56 1261.17,1266.56 1158.5,1258C 1116.45,1254.55 1074.45,1250.55 1032.5,1246C 940.873,1235.09 849.207,1224.42 757.5,1214C 629.788,1201.81 501.788,1197.14 373.5,1200C 321.149,1201.55 268.816,1203.55 216.5,1206C 144.19,1210.97 71.8569,1215.47 -0.5,1219.5C -0.5,1146.83 -0.5,1074.17 -0.5,1001.5 Z"/></g>
<g><path style="opacity:1" fill="#fffefe" d="M 1972.5,1176.5 C 1972.5,1349.5 1972.5,1522.5 1972.5,1695.5C 1314.83,1695.5 657.167,1695.5 -0.5,1695.5C -0.5,1536.83 -0.5,1378.17 -0.5,1219.5C 71.8569,1215.47 144.19,1210.97 216.5,1206C 268.816,1203.55 321.149,1201.55 373.5,1200C 501.788,1197.14 629.788,1201.81 757.5,1214C 849.207,1224.42 940.873,1235.09 1032.5,1246C 1074.45,1250.55 1116.45,1254.55 1158.5,1258C 1261.17,1266.56 1363.83,1266.56 1466.5,1258C 1564.11,1249.53 1661.11,1236.53 1757.5,1219C 1829.25,1205.28 1900.92,1191.12 1972.5,1176.5 Z"/></g>
</svg>
