<svg width="700" height="270" viewBox="0 0 700 270" xmlns="http://www.w3.org/2000/svg">
    <path opacity=".65" fill="#e1f0fb" d="M680.8 90.9c-13.2-54.8-65.2-93.3-151.5-72.2C475.6 9.6 415.9 8.6 360.5 15c-16.4-5-33.3-9.4-52.5-10.7-27.5-1.9-48.6 2.2-68.3 8C212.3 6.3 186.9-.8 158 0 83.5 2.1 57.7 13.8 29.6 22c-9.4-2.6-19.3-5.5-29.6-8.9v252.3c29.9-4.6 61.7-10.8 95.1-15.6 38.3 9 72.7 18.1 118.3 15.2 26.5-1.7 52.6-6 77.8-10.5 44.2 7.1 93.3 14.8 152.3 14.8 24.4 0 50.1-2.5 75.3-7.4 99.8 8.1 170-29.3 180-99 4.1-28.2-2.9-52.1-18-72z"/>
    <path fill="#e1f0fb" d="M210.4 243.8c25.7 1.7 52.2 6 80.8 10.6 53.8-9.6 103.6-20 145.8-8 28.9 8.3 56.3 13.3 81.8 15.4C594.1 247.2 664.5 211.2 679 157c6.1-22.8 6.6-45.6 1.6-66.1-28.4-37.5-85.4-61-151.5-72.2-5 1.2-10 2.6-15 4.1-71 22-110.9 5-153.8-7.9-7.4.9-14.8 1.8-22 2.9-39.4 6-70.2.9-98.8-5.4-50.7 15.1-92 42.1-210 9.6-9.1 2.6-18.4 4.9-29.6 6.3V235c37.6 1.7 67.4 8.2 95.1 14.7 36.9-5.2 75.6-8.6 115.4-5.9z"/>
</svg>